<svg xmlns="http://www.w3.org/2000/svg" viewBox="0 0 512 512" id="api">
  <path fill-rule="evenodd" d="M221.547,348.803c3.692,3.692,3.692,9.679,0,13.371-3.692,3.692-9.679,3.692-13.371,0l-29.834-29.834c-3.692-3.692-3.692-9.679,0-13.371l29.834-29.834c3.692-3.692,9.679-3.692,13.371,0s3.692,9.679,0,13.371l-23.149,23.149,23.149,23.149h0ZM303.824,362.174c-3.692,3.692-9.679,3.692-13.371,0-3.692-3.692-3.692-9.679,0-13.371l23.148-23.149-23.148-23.149c-3.692-3.692-3.692-9.679,0-13.371,3.692-3.692,9.679-3.692,13.371,0l29.834,29.834c3.692,3.692,3.692,9.679,0,13.371l-29.834,29.834h0ZM261.253,269.563c1.346-5.039,6.523-8.032,11.561-6.685s8.032,6.523,6.685,11.561l-28.753,107.309c-1.346,5.039-6.523,8.032-11.561,6.685s-8.032-6.523-6.685-11.561l28.753-107.309h0ZM83.661,111.075c-5.222,0-9.456-4.234-9.456-9.456s4.234-9.456,9.456-9.456h.238c5.222,0,9.456,4.234,9.456,9.456s-4.234,9.456-9.456,9.456h-.238ZM127.811,111.075c-5.222,0-9.456-4.234-9.456-9.456s4.234-9.456,9.456-9.456h.238c5.222,0,9.456,4.234,9.456,9.456s-4.234,9.456-9.456,9.456h-.238ZM174.138,111.075c-5.222,0-9.456-4.234-9.456-9.456s4.234-9.456,9.456-9.456h254.201c5.222,0,9.456,4.234,9.456,9.456s-4.234,9.456-9.456,9.456h-254.201ZM43.37,49.458c-7.536,0-14.381,3.076-19.336,8.033-4.956,4.956-8.033,11.8-8.033,19.336v358.346c0,7.536,3.076,14.381,8.033,19.336,4.956,4.956,11.8,8.033,19.336,8.033h425.26c7.536,0,14.38-3.076,19.337-8.033,4.956-4.956,8.033-11.8,8.033-19.336V76.827c0-7.536-3.076-14.381-8.033-19.336-4.956-4.956-11.801-8.033-19.337-8.033H43.37ZM477.087,152.388H34.913v282.785c0,2.316.954,4.429,2.491,5.965,1.537,1.537,3.65,2.491,5.966,2.491h425.26c2.316,0,4.429-.954,5.966-2.491,1.537-1.537,2.491-3.65,2.491-5.965V152.388h0ZM34.913,133.476h442.175v-56.649c0-2.316-.955-4.429-2.491-5.966-1.537-1.537-3.65-2.491-5.966-2.491H43.37c-2.316,0-4.429.955-5.966,2.491s-2.491,3.65-2.491,5.966v56.649h0ZM173.765,212.632c-15.037,15.037-25.038,35.11-27.256,57.47h-.311c-20.029,0-38.231,8.187-51.421,21.377s-21.377,31.392-21.377,51.421,8.187,38.231,21.377,51.421,31.392,21.377,51.421,21.377h219.604c20.029,0,38.231-8.187,51.421-21.377s21.377-31.392,21.377-51.421c0-16.36-5.479-31.514-14.694-43.719-8.015-10.615-18.869-18.988-31.41-23.972-1.037-11.773-6.246-22.351-14.139-30.244-8.853-8.853-21.084-14.33-34.592-14.33-5.392,0-10.637.904-15.588,2.571-1.4.472-2.774,1.006-4.116,1.6-7.257-13.492-17.693-25.02-30.305-33.581-15.172-10.299-33.44-16.316-53.066-16.316-26.135,0-49.798,10.595-66.926,27.723h0ZM240.691,203.821c-20.915,0-39.85,8.477-53.555,22.182-13.705,13.705-22.182,32.64-22.182,53.555,0,5.223-4.234,9.456-9.456,9.456h-9.299c-14.809,0-28.279,6.065-38.051,15.836-9.771,9.771-15.836,23.241-15.836,38.051s6.065,28.279,15.836,38.051,23.241,15.836,38.051,15.836h219.604c14.809,0,28.279-6.065,38.051-15.836s15.836-23.241,15.836-38.051c0-12.119-4.046-23.329-10.852-32.343-6.99-9.258-16.875-16.214-28.268-19.481-4.513-1.284-7.32-5.639-6.802-10.153l.026-.441c.011-.348-.017.066-.017-.925,0-8.288-3.359-15.791-8.789-21.221-5.43-5.43-12.933-8.789-21.221-8.789-3.417,0-6.645.54-9.604,1.537-3.135,1.055-6.025,2.602-8.577,4.543-4.141,3.141-10.045,2.331-13.187-1.81-.528-.696-.945-1.443-1.252-2.218h-.004c-5.645-14.212-15.467-26.314-27.95-34.787-12.08-8.2-26.707-12.991-42.502-12.991Z"></path>
</svg>
