<svg xmlns="http://www.w3.org/2000/svg" viewBox="0 0 737 692"><path fill="#68217a" d="M658.03 181.94c1.14 3.19 1.97 6.06 1.97 9.56q0 151.5-.01 303c0 13.16-6.26 26.2-17.86 32.93q-124.7 72.35-249.35 144.78-10.01 5.82-15.27 7.17c-10.69 2.75-19.98 1.1-29.49-4.41Q220.37 601.14 92.74 527.26c-2.39-1.39-13.38-9.33-11.77-11.94q.23-.38.03-.77-4.48-8.59-4.48-17.61-.04-149.22-.04-298.44c0-12.38 5.64-26.04 16.77-32.51Q221.54 91.41 349.91 16.98c9.53-5.52 21.76-6.72 32.25-2.66q2.12.82 10.52 5.65 125.95 72.47 251.88 144.98 9.41 5.42 14.36 14.49.27.49-.12.89l-.52.52q-.47.47-.25 1.09ZM282.86 446.75c-35.56-29.99-53.32-78.47-44.48-124.56 17.39-90.65 118.46-137.19 198.29-89.58q28.88 17.22 46.62 48.06.31.55.86.23l69.31-39.99q.49-.28.21-.76-37.65-63.88-105.35-92.01c-59.07-24.55-128.66-19.71-184.11 11.63-116.95 66.12-144.96 221.11-59.16 323.43 95.23 113.55 273.17 97.48 347.96-30.31q.27-.46-.19-.73l-68.56-40.39a.71.7-59.7 0 0-.97.26c-42.03 72.03-137.2 88.03-200.43 34.72Zm271.02-111.5a.49.49 0 0 1 .48.6l-4.62 20.52a.49.49 0 0 1-.48.38h-18.02a.49.49 0 0 0-.49.49v26.26a.49.49 0 0 0 .5.49l12.4-.23a.49.49 0 0 1 .49.59l-6.28 31.31a.49.49 0 0 0 .48.59h25.03a.49.49 0 0 0 .48-.39l6.32-31.7a.49.49 0 0 1 .49-.4l19.46.19a.49.49 0 0 1 .47.59l-6.25 31.12a.49.49 0 0 0 .48.59h25.55a.49.49 0 0 0 .48-.39l6.34-31.74a.49.49 0 0 1 .49-.4l26.08.22a.49.49 0 0 0 .49-.49v-26.23a.49.49 0 0 0-.49-.49l-21.06.06a.49.49 0 0 1-.48-.6l4.66-20.56a.49.49 0 0 1 .48-.38h16.4a.49.49 0 0 0 .49-.49v-26.02a.49.49 0 0 0-.49-.49h-10.8a.49.49 0 0 1-.48-.59l6.28-31.32a.49.49 0 0 0-.48-.59h-24.99a.49.49 0 0 0-.48.39l-6.33 31.72a.49.49 0 0 1-.48.39h-19.6a.49.49 0 0 1-.48-.59l6.29-31.32a.49.49 0 0 0-.48-.59h-25.48a.49.49 0 0 0-.48.39l-6.35 31.72a.49.49 0 0 1-.48.39H531.2a.49.49 0 0 0-.49.49l.06 26.02a.49.49 0 0 0 .49.49h22.62Z"/><path fill="#68217a" d="M580.79 335.25h19.65a.43.43 0 0 1 .42.52l-4.6 20.64a.43.43 0 0 1-.42.34h-19.67a.43.43 0 0 1-.42-.52l4.62-20.64a.43.43 0 0 1 .42-.34Z"/></svg>