<svg width="285" height="362" viewBox="0 0 285 362" fill="none" xmlns="http://www.w3.org/2000/svg">
<path d="M280.307 174.916C280.307 246.406 218.764 304.416 142.807 304.416C66.8492 304.416 5.30786 246.406 5.30786 174.916C5.30786 103.425 66.8503 45.4159 142.807 45.4159C218.765 45.4159 280.308 103.425 280.308 174.916" fill="#D33833"/>
<path d="M10.4942 206.416C10.4942 206.416 0.544743 71.753 135.308 67.8807L125.911 53.4159L52.8356 76.0298L31.9418 98.1345L13.7007 130.323L3.30786 167.81L6.40411 192.869" fill="#EF3D3A"/>
<path d="M47.974 86.069C23.8638 108.855 8.86306 140.226 8.86306 174.967C8.86306 209.709 23.8638 241.078 47.974 263.865C72.1961 286.651 105.419 300.65 142.307 300.65C179.197 300.65 212.418 286.651 236.641 263.866C260.752 241.078 275.752 209.709 275.752 174.967C275.752 140.225 260.752 108.855 236.641 86.069C212.42 63.3846 179.197 49.2846 142.307 49.2846C105.53 49.2846 72.1973 63.2827 47.974 86.069ZM41.8633 269.28C16.1977 245.166 0.307861 211.753 0.307861 174.967C0.307861 138.182 16.1977 104.768 41.8633 80.5514C67.53 56.4366 103.086 41.4159 142.308 41.4159C181.53 41.4159 217.086 56.4366 242.752 80.5514C268.418 104.666 284.308 138.079 284.308 174.967C284.308 211.752 268.418 245.166 242.752 269.28C217.086 293.497 181.53 308.416 142.307 308.416C103.086 308.416 67.53 293.497 41.8633 269.28Z" fill="#231F20"/>
<path d="M200.575 175.181L179.537 178.043L151.153 181.007L132.787 181.416L114.866 180.905L101.174 177.022L89.0404 164.96L79.5791 140.328L77.4645 135.013L64.8867 131.13L57.5389 119.99L52.3079 104.045L58.0964 90.043L71.7881 85.6478L82.8076 90.4519L88.0386 101.082L94.3836 100.161L96.4982 97.7087L94.3836 86.5676L93.8272 72.5651L96.9436 53.2485L96.8325 42.2104L106.405 28.1059L123.213 16.9649L152.6 5.41592L185.214 9.81013L213.598 28.6168L226.734 47.9334L235.192 61.936L237.308 96.6858L230.963 126.633L219.386 153.207L208.478 167.413" fill="#F0D6B7"/>
<path d="M182.634 258.335L107.525 261.183V272.677L113.867 313.06L110.751 316.416L58.2309 300.039L54.5594 294.241L49.3292 239.924L36.9779 207.374L34.3079 199.643L76.3686 173.197L89.4992 168.416L101.071 181.435L111.085 189.574L122.658 192.93L127.887 194.355L134.23 219.377L139.015 224.667L151.143 220.801L142.687 235.753L188.308 255.486L182.634 258.334" fill="#335061"/>
<path d="M58.4152 90.4096L72.0598 86.0285L83.0415 90.8173L88.2545 101.416L94.5776 100.499L96.1316 94.6901L93.0248 83.5821L96.1304 57.0877L93.4686 42.6174L102.897 32.5292L123.308 17.6511L117.539 10.4159L88.6983 23.4588L76.6076 32.1215L69.8407 45.572L59.4135 58.6159L56.3079 74.0034L58.4152 90.4096Z" fill="#6D6B6D"/>
<path d="M79.8555 45.3293C79.8555 45.3293 87.7036 27.5591 118.99 18.9278C150.275 10.2965 120.539 12.7332 120.539 12.7332L86.5972 24.7162L73.5538 36.698L67.8048 46.2432L79.8555 45.3293ZM64.1571 87.0653C64.1571 87.0653 53.2116 53.453 95.0001 48.6809L93.4526 42.8926L64.7097 49.0872L56.3079 74.0682L58.408 90.4159L64.1571 87.0653Z" fill="#DCD9D8"/>
<path d="M81.0105 132.372L87.8804 126.244C87.8804 126.244 90.9842 126.551 91.5382 129.921C92.0922 133.291 93.6435 163.725 116.141 180.065C118.246 181.597 99.4066 177.614 99.4066 177.614L82.6713 153.512M177.314 123.18C177.314 123.18 178.533 108.576 182.855 109.7C187.178 110.823 187.178 114.805 187.178 114.805C187.178 114.805 176.76 120.933 177.314 123.18ZM220.757 69.6664C220.757 69.6664 212.112 71.2998 211.337 78.3471C210.561 85.3933 220.757 79.7767 222.308 79.2662M157.478 70.1769C157.478 70.1769 145.951 71.6065 145.951 78.3471C145.951 85.0866 159.029 84.5761 162.686 81.7168M86.3291 101.53C86.3291 101.53 66.4933 90.3975 64.388 101.019C62.2827 111.64 57.6276 119.299 67.4907 130.431L60.7302 128.491L54.4143 113.58L52.3079 99.0782L64.388 87.5382L78.0184 88.4574L85.8868 94.2788L86.3302 101.53M95.75 71.096C95.75 71.096 104.615 28.6108 149.609 20.4407C186.622 13.7001 206.128 21.8713 213.442 29.6318C213.442 29.6318 180.417 -6.52044 149.054 4.50897C117.692 15.6413 94.6409 35.8619 95.1949 48.8324C96.0817 71.095 95.7488 71.095 95.7488 71.095M217.099 34.4322C217.099 34.4322 201.917 33.9217 201.362 46.4827C201.362 46.4827 201.362 48.4238 202.36 50.3639C202.36 50.3639 214.439 37.802 221.754 44.5425" fill="#F7E4CD"/>
<path d="M150.308 51.0248C150.308 51.0248 147.656 31.71 129.971 42.9081C118.475 50.2026 119.58 60.3736 121.571 62.3264C123.671 64.2782 123.118 68.1817 124.665 65.5114C126.213 62.84 125.77 54.1072 131.518 51.6408C137.155 49.1755 146.661 46.5051 150.308 51.0248Z" fill="#F7E4CD"/>
<path d="M101.259 181.832L51.7144 201.953C51.7144 201.953 72.2459 276.346 61.7563 299.416L54.393 296.977L53.8352 268.622L40.1104 214.963L34.3079 200.124L85.9696 168.416L101.256 181.831M106.278 222.991L113.308 230.817V259.577H104.94C104.94 259.577 103.936 239.455 103.936 237.017C103.936 234.577 104.94 225.939 104.94 225.939M106.502 263.948L82.7354 264.863L89.5422 269.233L106.39 271.673" fill="#49728B"/>
<path d="M187.309 258.929L206.574 258.416L211.308 302.952L191.602 305.416L187.308 258.928" fill="#335061"/>
<path d="M192.308 259.416L221.704 257.984C221.704 257.984 233.841 229.985 233.841 228.554C233.841 227.123 244.308 187.985 244.308 187.985L220.59 165.299L215.802 161.416L203.22 172.963V217.825L192.308 259.416Z" fill="#335061"/>
<path d="M205.749 255.918L187.308 259.29L189.991 272.776C196.808 275.637 208.432 267.974 208.432 267.974M206.307 171.428L243.302 196.561L244.308 185.015L216.367 161.416L206.309 171.428" fill="#49728B"/>
<path d="M124.577 353.658L113.659 313.471L108.199 283.811L107.308 261.845L156.663 259.416H187.302L184.518 309.624L189.308 348.394L188.751 355.581L148.753 358.416L124.577 353.658Z" fill="white"/>
<path d="M180.637 258.296C180.637 258.296 177.988 308.797 185.824 344.794C185.824 344.794 170.153 354.051 147.308 356.416L191.122 354.976L196.308 352.097L190.018 272.49L188.362 255.416" fill="#DCD9D8"/>
<path d="M211.899 299.416L232.472 294.067L271.493 292.113L277.308 275.553L266.797 246.856L254.61 245.416L237.727 250.251L221.626 257.554L213.017 256.113L206.308 258.582" fill="white"/>
<path d="M212.308 289.481C212.308 289.481 225.834 283.702 227.923 284.208L222.204 257.85L228.913 255.416C228.913 255.416 233.642 280.356 233.642 283.195C233.642 283.195 262.672 284.614 265.311 284.614C265.311 284.614 271.579 273.563 270.04 262.107L275.758 277.416L276.308 286.033L267.951 297.489L258.604 299.416L242.989 298.909L237.82 292.725L219.675 295.157L213.957 297.084" fill="#DCD9D8"/>
<path d="M190.973 255.416L179.418 228.256L167.308 212.205C167.308 212.205 169.975 205.416 173.641 205.416H185.752L197.308 209.325L196.307 227.33L190.973 255.416Z" fill="white"/>
<path d="M194.085 246.457C194.085 246.457 179.418 220.117 179.418 216.191C179.418 216.191 182.086 210.303 185.752 211.75C189.419 213.196 197.308 217.122 197.308 217.122V207.824L179.418 204.416L167.308 205.862L187.752 250.9L191.973 251.416" fill="#DCD9D8"/>
<path d="M129.308 182.777L114.867 181.333L101.308 177.416V181.849L107.922 188.653L128.757 197.416" fill="white"/>
<path d="M105.78 184.416C105.78 184.416 122.308 190.281 127.743 188.935L128.308 194.416L113.365 191.723L104.308 186.242L105.78 184.416Z" fill="#DCD9D8"/>
<path d="M212.176 207.416C203.37 207.209 195.334 206.178 188.4 204.321C188.84 201.639 187.96 199.06 188.731 197.1C190.712 195.759 193.903 195.759 196.875 195.45C194.344 194.315 190.712 193.799 187.85 194.521C187.739 192.665 186.859 191.529 186.308 190.085C191.262 188.434 202.93 177.604 209.534 181.11C212.726 182.864 214.047 192.561 214.267 197.41C214.487 201.329 213.827 205.249 212.176 207.416Z" fill="#D33833"/>
<path d="M212.176 207.416C203.37 207.209 195.334 206.178 188.4 204.321C188.84 201.639 187.96 199.06 188.731 197.1C190.712 195.759 193.903 195.759 196.875 195.45C194.344 194.315 190.712 193.799 187.85 194.521C187.739 192.665 186.859 191.529 186.308 190.085C191.262 188.434 202.93 177.604 209.534 181.11C212.726 182.864 214.047 192.561 214.267 197.41C214.487 201.329 213.827 205.249 212.176 207.416Z" fill="black" stroke="#D33833" stroke-width="11.9904"/>
<path d="M169.652 193.77C169.652 194.383 169.652 194.994 169.542 195.607C166.81 197.24 162.436 197.24 159.375 198.669C163.749 198.872 167.247 199.893 170.308 201.219C170.198 202.751 170.198 204.384 170.09 205.915C165.06 209.078 160.469 213.875 154.566 216.936C151.724 218.366 141.995 222.039 139.043 221.325C137.403 220.916 137.184 218.978 136.529 217.141C135.108 213.263 131.828 206.935 131.5 201.016C131.171 193.566 130.298 181.014 138.933 182.544C145.929 183.769 154.019 186.729 159.375 189.484C162.764 191.321 164.623 193.362 169.652 193.77Z" fill="#D33833"/>
<path d="M169.652 193.77C169.652 194.383 169.652 194.994 169.542 195.607C166.81 197.24 162.436 197.24 159.375 198.669C163.749 198.872 167.247 199.893 170.308 201.219C170.198 202.751 170.198 204.384 170.09 205.915C165.06 209.078 160.469 213.875 154.566 216.936C151.724 218.366 141.995 222.039 139.043 221.325C137.403 220.916 137.184 218.978 136.529 217.141C135.108 213.263 131.828 206.935 131.5 201.016C131.171 193.566 130.298 181.014 138.933 182.544C145.929 183.769 154.019 186.729 159.375 189.484C162.764 191.321 164.623 193.362 169.652 193.77Z" fill="black" stroke="#D33833" stroke-width="11.9904"/>
<path d="M174.715 202.948C173.936 198.81 173.046 197.674 173.38 194.053C185.278 186.709 187.392 206.672 174.715 202.948Z" fill="#D33833"/>
<path d="M174.715 202.948C173.936 198.81 173.046 197.674 173.38 194.053C185.278 186.709 187.392 206.672 174.715 202.948Z" fill="black" stroke="#D33833" stroke-width="11.9904"/>
<path d="M192.199 206.461C192.199 206.461 188.533 201.654 191.199 200.223C193.866 198.791 196.421 200.223 197.976 197.768C199.533 195.313 197.976 193.883 198.532 191.018C199.087 188.155 201.642 187.644 204.309 187.132C206.975 186.62 214.308 185.7 215.308 188.053L212.197 179.359L205.864 177.416L185.978 188.053L184.978 193.371V204.007M137.093 222.416C136.427 214.847 135.761 207.382 135.094 199.813C133.983 188.564 137.982 190.506 148.647 190.506C150.315 190.506 158.646 192.246 159.203 193.371C162.091 198.791 154.425 197.563 162.535 201.654C169.312 205.03 181.423 199.609 178.645 191.939C177.089 190.2 170.646 191.427 168.312 190.302L155.98 184.473C150.759 182.018 138.759 178.336 133.205 181.814C119.094 190.609 134.094 212.7 139.093 221.905" fill="#EF3D3A"/>
<path d="M150.758 51.1725C136.405 48.1163 129.285 56.6732 124.946 65.535C121.052 64.7209 122.609 59.8311 123.612 57.3867C126.169 50.9693 136.517 42.3097 144.972 43.5324C148.532 43.94 153.427 46.9963 150.758 51.1725ZM220.516 66.0442H221.183C224.41 72.1567 227.191 78.6767 231.308 84.1774C228.527 90.0856 210.614 95.1786 210.836 84.7882C214.73 83.2606 221.406 84.4823 224.855 82.4455C222.852 77.454 220.071 73.174 220.516 66.0442ZM157.99 66.2495C161.105 71.4442 162.105 76.8432 166.444 80.7146C168.448 82.4455 172.23 84.5849 170.339 89.4737C169.894 90.5948 166.667 93.1418 164.776 93.651C157.99 95.4846 142.079 94.0586 147.419 86.2142C153.093 86.4185 160.659 89.5764 164.888 85.8066C161.661 81.1211 155.875 71.7491 157.99 66.2495ZM217.957 118.607C207.721 124.618 196.261 131.24 179.351 129.711C175.791 126.859 174.344 120.441 177.904 116.265C179.684 119.117 178.572 124.415 183.69 125.229C193.258 126.757 204.383 119.83 211.281 117.488C215.508 110.866 210.948 108.524 207.054 104.245C199.155 95.5862 188.697 84.7882 189.03 71.8518C192.257 69.7123 192.479 75.1113 192.924 76.0281C197.04 84.7882 207.388 96.0954 214.841 103.634C216.733 105.467 219.736 107.301 220.071 108.524C221.072 111.986 217.512 116.263 217.957 118.607ZM82.4446 112.292C79.2187 110.56 78.4406 103.226 74.6574 103.022C69.2059 102.717 70.2072 112.598 70.2072 118.404C66.5361 115.349 65.8679 105.772 68.5387 100.884C65.4238 99.4566 64.0873 102.411 62.3079 103.43C64.6446 88.6596 86.0046 96.6046 82.4446 112.292ZM224.41 124.821C219.625 133.175 212.838 142.343 198.82 142.649C198.486 140 198.264 135.824 198.82 134.193C209.613 133.175 216.287 128.183 224.41 124.821ZM157.21 130.22C166.111 134.499 182.577 135.008 194.815 134.702C195.482 137.148 195.482 140.203 195.482 143.158C179.796 143.769 161.327 140.203 157.21 130.22ZM155.542 138.166C161.772 152.427 183.022 150.798 200.934 150.39C200.156 152.224 198.486 154.465 196.262 155.177C190.476 157.317 174.677 158.947 166.667 155.076C161.661 152.631 158.323 147.028 155.542 143.769C154.318 142.241 147.643 138.268 155.542 138.166Z" fill="#231F20"/>
<path d="M217.308 216.972C210.014 228.497 202.947 240.331 194.308 250.416C197.897 240.64 199.468 224.175 200.03 211.621C207.659 208.327 214.167 212.34 217.308 216.972Z" fill="#81B0C4"/>
<path d="M255.561 258.416C247.646 259.892 242.115 266.881 234.308 266.389C238.645 260.974 246.018 258.612 255.561 258.416ZM259.03 269.636C252.525 270.228 244.934 271.212 238.429 270.72C241.573 266.389 253.501 267.963 259.03 269.636ZM261.308 279.382C254.043 279.48 245.043 279.382 238.103 278.889C242.223 274.853 256.645 277.413 261.308 279.382Z" fill="#231F20"/>
<path d="M203.041 307.535C204.125 316.078 207.706 324.722 207.272 334.077C203.258 335.297 200.98 336.416 195.556 336.416C195.232 328.484 194.038 316.282 194.364 308.655C196.966 308.858 200.871 306.926 203.041 307.535Z" fill="#DCD9D8"/>
<path d="M191.308 180.417C187.486 182.799 184.339 185.723 180.629 188.322C172.536 188.756 168.152 187.781 162.308 183.341C162.42 183.016 162.982 183.124 162.982 182.69C171.637 186.373 182.652 181.176 191.308 180.417Z" fill="#F0D6B7"/>
<path d="M146.308 234.534C148.615 225.328 157.734 220.474 165.972 215.416C174.431 225.329 179.595 238.075 185.308 250.416C171.795 246.673 158.063 240.705 146.308 234.534Z" fill="#81B0C4"/>
<path d="M193.949 308.583C193.616 316.244 194.724 328.399 195.167 336.468C200.706 336.468 203.031 335.345 207.131 334.119C207.574 324.721 203.918 316.039 202.81 307.459C200.595 306.745 196.607 308.685 193.949 308.583ZM108.437 265.275C112.093 296.019 117.298 321.758 126.934 349.032C148.313 355.058 174.01 355.568 192.952 350.155C189.518 334.834 190.958 316.142 188.965 299.696C187.413 287.337 188.189 274.978 186.085 262.414C163.155 258.023 130.812 261.393 108.437 265.275ZM191.512 262.619C191.29 275.795 192.176 288.869 193.285 302.045C198.822 301.331 202.478 300.82 207.574 299.696C205.912 287.03 206.134 272.629 202.7 261.393C198.823 261.496 195.388 261.394 191.512 262.619ZM219.314 260.474C216.656 259.963 213.666 260.474 211.229 260.474C212.446 271.199 215.216 283.048 216.213 294.385C220.09 294.487 222.194 292.751 225.407 292.24C225.628 282.332 224.521 268.645 219.314 260.474ZM261.517 296.019C269.714 294.181 274.809 284.988 272.482 275.489C270.932 269.156 268.274 257.103 265.282 253.017C263.178 250.055 257.307 246.071 252.545 248.829C244.901 253.323 231.499 254.651 225.961 260.065C228.729 268.645 229.616 280.29 230.723 291.116C240.25 291.628 251.879 288.666 259.856 291.831C254.316 293.466 247.228 293.466 242.464 295.917C246.452 297.654 255.535 297.347 261.517 296.019ZM185.531 250.157C179.771 237.696 174.565 224.826 166.035 214.816C157.728 219.922 148.645 224.826 146.208 234.121C158.171 240.352 172.018 246.378 185.531 250.157ZM199.708 211.65C199.154 224.111 197.604 240.454 194.06 250.157C202.588 240.045 209.568 228.4 216.767 216.96C213.666 212.364 207.241 208.38 199.709 211.649L199.708 211.65ZM183.648 206.441C180.435 206.133 177.666 209.913 173.457 208.278C172.46 209.3 171.574 210.322 170.577 211.343C179.881 221.761 184.201 236.471 191.402 248.625C195.279 236.88 194.835 224.111 195.722 211.343C190.405 211.547 187.414 206.748 183.648 206.441ZM173.346 193.876C173.014 197.451 173.9 198.575 174.675 202.661C187.302 206.338 185.198 186.624 173.346 193.876ZM159.278 189.586C153.851 186.828 145.655 183.866 138.565 182.641C129.815 181.108 130.701 193.672 131.033 201.129C131.366 207.052 134.689 213.283 136.129 217.267C136.793 219.106 137.014 221.046 138.677 221.455C141.667 222.068 151.636 218.493 154.406 217.062C160.387 214.101 165.039 209.301 170.135 206.031C170.245 204.499 170.245 202.865 170.356 201.333C167.254 199.902 163.821 198.984 159.278 198.78C162.27 197.349 166.811 197.349 169.58 195.716C169.58 195.102 169.58 194.49 169.691 193.876C164.595 193.365 162.712 191.323 159.278 189.586ZM107.219 180.904C102.678 185.194 119.956 190.914 125.385 191.221C125.385 188.565 127.046 186.012 126.713 184.071C120.178 183.05 111.649 183.764 107.219 180.904ZM163.046 182.845C163.046 183.253 162.491 183.152 162.381 183.458C168.251 187.646 172.57 188.564 180.435 188.157C183.98 185.807 187.192 182.948 190.958 180.7C182.318 181.415 171.464 186.318 163.046 182.845ZM214.219 197.145C213.998 192.446 212.668 182.743 209.456 181.006C202.81 177.431 191.069 188.258 186.085 189.893C186.638 191.323 187.525 192.446 187.635 194.285C190.627 193.57 194.17 194.081 196.718 195.204C193.727 195.511 190.515 195.511 188.522 196.839C187.856 198.779 188.743 201.333 188.189 203.989C195.167 205.827 203.254 206.747 212.115 207.052C213.776 205.01 214.44 201.128 214.219 197.145ZM99.5753 184.99C98.1353 184.071 88.4992 172.528 87.1696 173.039C69.7796 179.373 53.4969 190.302 38.9859 200.719C52.8316 228.196 58.4813 261.802 59.4782 294.181C75.3188 301.024 89.2739 310.932 110.874 311.953C108.326 295.713 106.111 281.106 104.671 265.784C99.2438 263.64 91.4898 265.887 86.3949 265.172C86.3949 259.554 94.1478 262.721 94.812 258.942C95.2563 256.081 90.4918 255.877 92.0435 251.383C96.031 252.711 98.1353 255.672 102.345 256.797C106.222 249.034 102.345 235.245 102.899 228.707C103.01 227.482 103.563 221.965 106.553 222.885C109.213 223.702 106.443 237.696 106.665 243.824C106.886 249.544 105.889 254.958 108.437 258.533C129.262 255.877 150.418 254.243 173.014 253.63C168.029 251.69 162.158 249.851 155.734 246.48C152.19 244.641 141.224 240.862 140.227 237.798C138.565 232.895 144.436 230.342 145.433 226.153C134.91 231.465 132.916 221.047 130.369 213.794C128.153 207.154 126.825 202.15 126.271 198.37C117.077 194.081 107.329 190.097 99.5753 184.99ZM205.025 174.367C219.536 167.933 222.194 198.575 216.434 208.483C217.32 211.445 220.311 212.569 221.53 215.224C213.443 228.605 204.473 241.066 196.164 254.243C202.257 250.667 211.118 253.63 218.317 250.974C220.976 250.055 222.86 244.437 224.853 239.943C230.39 227.686 236.15 212.159 238.699 200.517C239.253 197.861 240.914 192.037 240.471 189.688C239.806 185.399 233.603 182.232 230.39 179.678C224.521 174.775 220.865 170.589 214.661 165.991C212.336 169.363 207.019 171.609 205.025 174.368V174.367ZM66.4563 55.7786C59.5887 62.827 61.0288 75.9015 61.8046 85.298C74.3208 78.0468 90.8256 85.9115 90.714 98.1687C96.6952 98.0657 92.9299 91.3252 91.8225 86.9327C88.277 72.7351 97.8037 57.4133 92.2645 44.4417C81.5211 45.2581 72.7702 49.2408 66.4563 55.7786ZM115.858 15.0243C100.241 19.11 80.1915 29.6306 73.7671 42.6022C78.7515 41.8878 82.1853 39.6406 87.0591 39.3338C88.9423 39.2319 91.3793 40.0492 93.4835 39.5387C97.6921 38.5175 101.348 29.7325 104.56 26.4641C107.662 23.2977 111.427 21.8678 113.976 19.0081C115.637 18.2927 118.073 18.2927 118.184 16.0455C117.52 15.33 116.744 14.8205 115.858 15.0243ZM197.271 18.9052C180.99 10.428 153.519 4.09506 136.24 12.0617C122.282 18.4965 103.453 29.119 97.0279 42.5013C103.009 55.4719 95.2563 67.3204 94.7014 80.4968C94.4804 87.5452 98.2469 93.5724 98.5784 101.233C96.4742 104.4 90.2708 104.705 85.9517 104.502C84.5117 97.759 81.9642 90.201 74.4313 89.3837C63.7983 88.2606 55.9339 96.4321 55.4907 104.91C54.937 114.92 63.7983 131.467 76.4251 130.344C81.2989 129.935 82.5179 125.441 87.8338 125.441C90.714 130.753 83.4043 132.386 82.6284 136.165C82.4063 137.187 83.1821 140.966 83.7358 142.805C86.0622 151.487 91.1571 162.825 96.1415 169.465C102.566 177.942 115.083 179.168 128.596 179.985C131.033 175.184 139.895 175.593 145.654 176.819C138.677 174.266 132.252 168.137 126.935 162.723C120.842 156.492 114.64 149.853 114.307 141.682C125.938 156.492 135.464 169.465 156.51 176.002C172.46 180.904 191.069 173.754 203.364 165.787C208.459 162.518 211.45 157.207 215.106 152.508C228.619 134.532 234.933 108.995 233.603 84.1749C233.049 73.9611 233.049 63.7463 229.283 56.9027C225.407 49.7525 212.225 43.2157 204.472 49.7525C203.031 42.7051 210.896 38.4145 220.089 40.9685C213.555 33.1038 206.687 23.8083 197.271 18.9052ZM227.622 249.851C240.36 244.029 264.064 234.223 271.929 249.851C274.92 255.672 278.353 265.377 279.793 271.403C281.897 279.779 277.467 297.552 268.052 300.309C259.744 302.761 250.108 302.659 240.139 300.82C238.92 299.901 237.702 298.368 236.705 296.734C229.617 296.53 222.86 297.041 217.32 299.799C217.874 304.701 214.33 305.417 210.896 306.439C208.459 315.529 215.88 327.377 214.109 335.548C212.89 341.473 205.025 342.392 199.266 343.413C199.044 346.683 199.487 349.44 199.93 352.198C198.602 356.693 192.73 359.245 187.081 359.859C168.584 361.901 140.56 362.821 122.837 356.896C117.852 345.661 113.976 332.076 109.877 319.309C92.5972 321.044 78.5304 312.464 65.3489 306.745C60.8077 304.804 54.4938 303.68 52.7211 300.31C51.06 297.041 51.7242 290.81 51.281 284.988C50.2842 269.973 49.2873 255.469 45.0788 240.147C43.1955 233.201 39.7617 227.175 37.4353 220.537C35.2205 214.408 31.4541 206.747 30.4572 200.618C29.0171 191.528 38.3217 191.016 44.1924 187.032C53.3864 180.904 60.5856 177.533 70.5543 172.017C73.5461 170.384 82.4063 166.298 83.4032 164.357C85.398 160.579 79.9705 155.267 78.5304 152.304C76.204 147.606 74.985 143.622 74.6534 139.025C66.3458 137.8 59.9214 133.204 56.156 128.097C49.841 119.517 45.4103 103.684 50.9495 91.7338C51.3927 90.8146 53.4969 88.8731 53.8296 87.4433C54.4938 84.5836 52.6106 80.8036 52.5001 77.74C51.9464 62.1116 55.3802 48.6284 66.789 43.9301C71.4407 26.8728 88.0549 21.2553 103.674 12.7771C109.545 9.61064 115.97 7.56829 122.615 5.32006C146.43 -2.74845 183.094 -1.21669 202.921 12.5723C211.339 18.3946 224.742 30.7537 229.505 39.7425C242.242 63.3376 241.246 102.867 232.385 131.672C231.166 135.553 229.505 141.17 227.068 145.869C225.407 149.138 220.2 155.573 220.754 158.432C221.419 161.395 232.718 169.26 235.155 171.405C239.475 175.286 247.781 180.394 248.446 185.297C249.221 190.506 246.01 197.656 244.349 202.661C239.031 219.413 233.715 234.836 227.622 249.851Z" fill="#231F20"/>
<path d="M142.666 134.447C143.323 133.694 147.048 132.473 152.308 134.635C152.308 134.635 146.062 135.482 146.609 144.416L143.98 143.945C144.09 144.04 141.351 135.952 142.666 134.447Z" fill="#F7E4CD"/>
<path d="M188.641 217.121C188.641 218.578 187.411 219.827 185.975 219.827C184.539 219.827 183.308 218.578 183.308 217.121C183.308 215.664 184.539 214.416 185.975 214.416C187.514 214.416 188.641 215.664 188.641 217.121ZM191.308 229.711C191.308 231.168 190.078 232.416 188.641 232.416C187.206 232.416 185.975 231.168 185.975 229.711C185.975 228.253 187.206 227.005 188.641 227.005C190.18 227.005 191.308 228.15 191.308 229.711Z" fill="#1D1919"/>
</svg>
