<svg width="24" height="24" viewBox="0 0 24 24" fill="none" xmlns="http://www.w3.org/2000/svg">
<path d="M21.2769 18.95V18.86L21.2669 18.85C21.0969 18.65 21.0169 18.32 20.9269 17.93C20.8469 17.53 20.7469 17.14 20.4269 16.88C20.3669 16.83 20.3069 16.82 20.2369 16.75C20.1799 16.7121 20.1148 16.6882 20.0469 16.68C20.3269 15.86 20.3569 15.03 20.2169 14.24C20.1469 13.81 20.0269 13.39 19.8669 12.99C19.3269 11.58 18.3869 10.35 17.6669 9.51C17.2969 9.04 16.9169 8.57 16.6269 8.07C16.2969 7.5 16.0769 6.89 16.0869 6.14C16.1069 4.75 16.1969 2.58 15.2169 1.23C14.6969 0.5 13.8469 0 12.5069 0C12.3469 0 12.1869 0.01 12.0169 0.02C10.7469 0.12 9.95689 0.58 9.46689 1.23C8.31689 2.75 8.85689 5.27 8.81689 6.32C8.73689 7.41 8.51689 8.27 7.75689 9.34C7.44689 9.7 7.08689 10.14 6.73689 10.64C6.06689 11.58 5.39689 12.7 5.00689 13.86C4.75689 14.61 4.61689 15.38 4.68689 16.12L4.71689 16.35C4.67689 16.38 4.63689 16.42 4.60689 16.48C4.33689 16.75 4.14689 17.08 3.93689 17.32C3.72689 17.52 3.44689 17.59 3.12689 17.72C2.80689 17.86 2.45689 17.99 2.25689 18.4C2.15689 18.59 2.11689 18.8 2.11689 19C2.11689 19.2 2.14689 19.41 2.17689 19.54C2.23689 19.94 2.29689 20.27 2.21689 20.51C1.96689 21.19 1.93689 21.66 2.10689 22C2.28689 22.33 2.64689 22.46 3.05689 22.6C3.87689 22.8 4.98689 22.73 5.86689 23.2C6.79689 23.66 7.75689 23.87 8.50689 23.67C9.04689 23.55 9.49689 23.2 9.73689 22.72C9.78689 22.72 9.82689 22.72 9.87689 22.71C10.4369 22.68 11.0569 22.45 12.0169 22.39C12.2869 22.37 12.5769 22.4 12.8969 22.44C13.4069 22.52 13.9869 22.63 14.6269 22.59C14.6469 22.72 14.6869 22.78 14.7369 22.92H14.7469C15.1369 23.7 15.8669 24.05 16.6469 23.99C17.4269 23.93 18.2569 23.46 18.9369 22.69C19.5669 21.92 20.6369 21.6 21.3369 21.18C21.6869 20.99 21.9769 20.72 21.9969 20.33C22.0169 19.93 21.7969 19.52 21.2769 18.95Z" fill="white"/>
<path d="M16.6301 10.98V11.9H16.0801C16.5794 12.8104 16.9369 13.7917 17.1401 14.81C17.2901 14.8 17.4701 14.83 17.6601 14.87C17.7401 14.66 17.7901 14.45 17.8201 14.24C18.0101 12.85 17.1301 11.49 16.6301 10.98ZM16.6301 10.98V11.9H16.0801C16.5794 12.8104 16.9369 13.7917 17.1401 14.81C17.2901 14.8 17.4701 14.83 17.6601 14.87C17.7401 14.66 17.7901 14.45 17.8201 14.24C18.0101 12.85 17.1301 11.49 16.6301 10.98ZM21.2801 18.95V18.86L21.2701 18.85C21.1001 18.65 21.0201 18.32 20.9301 17.93C20.8501 17.53 20.7501 17.14 20.4301 16.88C20.3701 16.83 20.3101 16.82 20.2401 16.75C20.1831 16.7121 20.118 16.6882 20.0501 16.68C20.3301 15.86 20.3601 15.03 20.2201 14.24C20.1501 13.81 20.0301 13.39 19.8701 12.99C19.3301 11.58 18.3901 10.35 17.6701 9.51C17.3001 9.04 16.9201 8.57 16.6301 8.07C16.3001 7.5 16.0801 6.89 16.0901 6.14C16.1101 4.75 16.2001 2.58 15.2201 1.23C14.7001 0.5 13.8501 0 12.5101 0C12.3501 0 12.1901 0.01 12.0201 0.02C10.7501 0.12 9.96006 0.58 9.47006 1.23C8.32006 2.75 8.86006 5.27 8.82006 6.32C8.74006 7.41 8.52006 8.27 7.76006 9.34C7.45006 9.7 7.09006 10.14 6.74006 10.64C6.07006 11.58 5.40006 12.7 5.01006 13.86C4.76006 14.61 4.62006 15.38 4.69006 16.12L4.72006 16.35C4.68006 16.38 4.64006 16.42 4.61006 16.48C4.34006 16.75 4.15006 17.08 3.94006 17.32C3.73006 17.52 3.45006 17.59 3.13006 17.72C2.81006 17.86 2.46006 17.99 2.26006 18.4C2.16006 18.59 2.12006 18.8 2.12006 19C2.12006 19.2 2.15006 19.41 2.18006 19.54C2.24006 19.94 2.30006 20.27 2.22006 20.51C1.97006 21.19 1.94006 21.66 2.11006 22C2.29006 22.33 2.65006 22.46 3.06006 22.6C3.88006 22.8 4.99006 22.73 5.87006 23.2C6.80006 23.66 7.76006 23.87 8.51006 23.67C9.05006 23.55 9.50006 23.2 9.74006 22.72C9.79006 22.72 9.83006 22.72 9.88006 22.71C10.4401 22.68 11.0601 22.45 12.0201 22.39C12.2901 22.37 12.5801 22.4 12.9001 22.44C13.4101 22.52 13.9901 22.63 14.6301 22.59C14.6501 22.72 14.6901 22.78 14.7401 22.92H14.7501C15.1401 23.7 15.8701 24.05 16.6501 23.99C17.4301 23.93 18.2601 23.46 18.9401 22.69C19.5701 21.92 20.6401 21.6 21.3401 21.18C21.6901 20.99 21.9801 20.72 22.0001 20.33C22.0201 19.93 21.8001 19.52 21.2801 18.95ZM13.5001 4.64C13.4601 4.51 13.4001 4.44 13.3201 4.31C13.2301 4.24 13.1501 4.17 13.0501 4.17H13.0301C12.9401 4.17 12.8501 4.2 12.7701 4.31C12.6701 4.4 12.6001 4.51 12.5601 4.64C12.5101 4.77 12.4801 4.9 12.4701 5.04V5.06C12.4701 5.15 12.4801 5.24 12.4901 5.33C12.2901 5.26 12.0501 5.19 11.8801 5.12C11.8701 5.06 11.8601 4.99 11.8601 4.93V4.91C11.8501 4.64 11.9001 4.38 12.0101 4.14C12.0901 3.92 12.2401 3.73 12.4401 3.6C12.6201 3.47 12.8301 3.4 13.0401 3.4H13.0601C13.2701 3.4 13.4601 3.47 13.6501 3.6C13.8401 3.74 13.9801 3.93 14.0901 4.14C14.2001 4.39 14.2501 4.59 14.2601 4.86C14.2601 4.84 14.2701 4.82 14.2701 4.8V4.9C14.2601 4.9 14.2601 4.89 14.2601 4.88C14.2601 5.11 14.2001 5.35 14.1101 5.57C14.0601 5.69 13.9901 5.81 13.8901 5.9C13.8601 5.88 13.8301 5.87 13.8001 5.86C13.7001 5.81 13.6001 5.79 13.5101 5.73C13.4405 5.69626 13.3664 5.67268 13.2901 5.66C13.3401 5.6 13.4401 5.53 13.4801 5.46C13.5301 5.33 13.5601 5.2 13.5701 5.06V5.04C13.5701 4.91 13.5501 4.77 13.5001 4.64ZM9.34006 4.2C9.39006 4 9.49006 3.82 9.63006 3.66C9.76006 3.53 9.89006 3.46 10.0501 3.46H10.0801C10.2281 3.46214 10.3716 3.51115 10.4901 3.6C10.6401 3.73 10.7601 3.89 10.8401 4.06C10.9301 4.26 10.9801 4.46 10.9901 4.73C11.0001 4.8 11.0001 4.85 11.0001 4.9C11.0001 4.94 11.0001 4.97 10.9901 5V5.08C10.9644 5.0902 10.9375 5.09693 10.9101 5.1C10.7501 5.16 10.6301 5.24 10.5101 5.3C10.5201 5.22 10.5201 5.13 10.5101 5.04V5.02C10.5001 4.89 10.4701 4.82 10.4301 4.69C10.3967 4.58727 10.3383 4.49448 10.2601 4.42C10.234 4.39781 10.2038 4.38106 10.1711 4.37076C10.1385 4.36045 10.1041 4.35679 10.0701 4.36H10.0501C9.98006 4.36 9.92006 4.4 9.87006 4.49C9.80006 4.57 9.76006 4.66 9.74006 4.76C9.72006 4.87 9.71006 4.98 9.72006 5.09V5.11C9.73006 5.24 9.76006 5.31 9.80006 5.44C9.85006 5.57 9.90006 5.64 9.97006 5.71C9.98006 5.72 9.99006 5.73 10.0001 5.73C9.93006 5.79 9.89006 5.8 9.83006 5.87C9.78892 5.90305 9.74118 5.92692 9.69006 5.94C9.59006 5.81 9.50006 5.68 9.42006 5.53C9.32006 5.32 9.27006 5.1 9.26006 4.87C9.24006 4.64 9.27006 4.41 9.34006 4.2ZM9.45006 6.31C9.67006 6.17 9.83006 6.03 9.94006 5.97C10.0401 5.9 10.0801 5.87 10.1101 5.84H10.1201C10.2901 5.63 10.5601 5.37 10.9601 5.23C11.1001 5.2 11.2601 5.17 11.4401 5.17C11.7701 5.17 12.1801 5.23 12.6601 5.57C12.9601 5.77 13.1901 5.84 13.7301 6.04C13.9901 6.17 14.1401 6.3 14.2201 6.44V6.3C14.2901 6.45 14.2901 6.62 14.2301 6.77C14.1101 7.09 13.7101 7.42 13.1601 7.62C12.8801 7.75 12.6501 7.95 12.3701 8.08C12.0901 8.22 11.7801 8.38 11.3501 8.35C11.1966 8.36271 11.0424 8.33871 10.9001 8.28C10.7801 8.22 10.6701 8.16 10.5701 8.09C10.3701 7.95 10.2001 7.75 9.95006 7.62C9.54006 7.37 9.32006 7.1 9.25006 6.91C9.18006 6.64 9.25006 6.44 9.45006 6.31ZM9.61006 21.97C9.55006 22.71 9.12006 23.11 8.47006 23.26C7.81006 23.39 6.93006 23.26 6.04006 22.8C5.07006 22.26 3.90006 22.33 3.16006 22.19C2.78006 22.13 2.54006 21.99 2.42006 21.79C2.31006 21.59 2.31006 21.19 2.55006 20.56C2.67006 20.22 2.58006 19.8 2.52006 19.44C2.47006 19.04 2.44006 18.73 2.57006 18.5C2.73006 18.16 2.97006 18.1 3.26006 17.96C3.56006 17.83 3.91006 17.76 4.19006 17.5V17.49C4.45006 17.22 4.64006 16.89 4.87006 16.65C5.06006 16.45 5.25006 16.32 5.54006 16.32H5.55006C5.60006 16.32 5.65006 16.32 5.71006 16.33C6.09006 16.39 6.42006 16.67 6.74006 17.08L7.66006 18.75H7.67006C7.91006 19.28 8.43006 19.82 8.87006 20.39C9.31006 20.99 9.65006 21.52 9.61006 21.96V21.97ZM12.9001 21.33C11.9101 21.56 10.8601 21.49 9.88006 20.95C9.76006 20.89 9.64006 20.82 9.53006 20.74C9.42006 20.55 9.28006 20.37 9.12006 20.21C9.04646 20.0847 8.95173 19.973 8.84006 19.88C9.03006 19.88 9.19006 19.85 9.32006 19.81C9.46006 19.74 9.58006 19.62 9.63006 19.48C9.74006 19.21 9.63006 18.78 9.28006 18.31C8.93006 17.85 8.34006 17.32 7.48006 16.79C7.15006 16.58 6.90006 16.36 6.71006 16.12C6.52006 15.89 6.39006 15.65 6.31006 15.4C6.15006 14.86 6.17006 14.31 6.30006 13.75C6.45006 13.09 6.75006 12.45 7.04006 11.9C7.24006 11.55 7.43006 11.24 7.59006 10.99C7.69006 10.92 7.62006 11.11 7.20006 11.9L7.17006 11.96C6.77006 12.71 6.02006 14.46 7.05006 15.82C7.09006 14.83 7.31006 13.85 7.70006 12.94C7.83006 12.64 8.00006 12.29 8.18006 11.9C8.77006 10.65 9.49006 9.03 9.56006 7.67C9.61006 7.71 9.78006 7.81 9.85006 7.87C10.0701 8.01 10.2401 8.21 10.4501 8.34C10.6601 8.54 10.9301 8.67 11.3401 8.67C11.3801 8.68 11.4101 8.68 11.4501 8.68C11.8601 8.68 12.1901 8.55 12.4601 8.41C12.7501 8.28 12.9801 8.08 13.2001 8.01H13.2101C13.6801 7.88 14.0501 7.61 14.2701 7.31C14.6301 8.73 15.4801 10.79 16.0201 11.79C16.5509 12.731 16.929 13.7504 17.1401 14.81C17.2901 14.8 17.4701 14.83 17.6601 14.87C17.7401 14.66 17.7901 14.45 17.8201 14.24C18.0101 12.85 17.1301 11.49 16.6301 10.98C16.6001 10.96 16.5701 10.93 16.5501 10.91C16.3301 10.71 16.3201 10.57 16.4301 10.57C16.5001 10.63 16.5601 10.69 16.6301 10.76C17.1901 11.34 17.8401 12.27 18.0901 13.33C18.1701 13.62 18.2101 13.93 18.2101 14.24C18.2101 14.49 18.1801 14.75 18.1201 15C18.1801 15.03 18.2501 15.06 18.3201 15.07C19.3701 15.6 19.7501 16 19.5701 16.6V16.56H19.3701C19.5201 16.09 19.1901 15.73 18.2901 15.34C17.3701 14.94 16.6301 15 16.5001 15.8C16.4901 15.84 16.4901 15.87 16.4801 15.94C16.4101 15.96 16.3401 15.99 16.2701 16C15.8401 16.27 15.6001 16.67 15.4701 17.19C15.3401 17.72 15.3001 18.34 15.2601 19.06C15.2401 19.39 15.0901 19.9 14.9401 20.41C14.3301 20.84 13.6401 21.17 12.9001 21.33ZM21.2001 20.82C20.5701 21.22 19.4401 21.53 18.7201 22.39C18.0901 23.13 17.3301 23.53 16.6601 23.58C15.9901 23.63 15.4101 23.38 15.0701 22.68H15.0601C14.8501 22.28 14.9401 21.65 15.1201 20.99C15.3001 20.32 15.5501 19.64 15.5901 19.09C15.6201 18.38 15.6601 17.76 15.7801 17.28C15.9101 16.81 16.1001 16.48 16.4301 16.29L16.4801 16.27C16.5101 16.87 16.8201 17.51 17.3701 17.65C17.9601 17.78 18.8201 17.31 19.1801 16.88L19.3901 16.87C19.7101 16.86 19.9801 16.88 20.2501 17.14C20.4601 17.34 20.5601 17.67 20.6501 18.02C20.7401 18.42 20.8101 18.8 21.0601 19.08C21.5601 19.61 21.7201 19.99 21.7101 20.22C21.6901 20.49 21.5201 20.62 21.2001 20.82ZM16.6301 10.98V11.9H16.0801C16.5794 12.8104 16.9369 13.7917 17.1401 14.81C17.2901 14.8 17.4701 14.83 17.6601 14.87C17.7401 14.66 17.7901 14.45 17.8201 14.24C18.0101 12.85 17.1301 11.49 16.6301 10.98Z" fill="black"/>
<path d="M10.83 5.58998C10.91 5.55998 11.02 5.54998 11.09 5.58998C11.11 5.59998 11.13 5.61998 11.12 5.63998V5.65998H11.13C11.11 5.71998 11.01 5.70998 10.96 5.72998C10.91 5.74998 10.87 5.79998 10.82 5.79998C10.77 5.79998 10.69 5.77998 10.68 5.72998C10.67 5.65998 10.77 5.58998 10.83 5.58998ZM11.85 5.72998C11.8 5.70998 11.7 5.71998 11.69 5.65998V5.63998C11.68 5.61998 11.7 5.59998 11.71 5.58998C11.7965 5.55495 11.8934 5.55495 11.98 5.58998C12.04 5.58998 12.14 5.65998 12.13 5.72998C12.12 5.77998 12.04 5.78998 11.99 5.78998C11.94 5.78998 11.9 5.74998 11.85 5.72998ZM10.09 7.17998C10.39 7.37998 10.78 7.64998 11.27 7.64998C11.76 7.64998 12.34 7.37998 12.69 7.17998C12.88 7.04998 13.14 6.84998 13.34 6.70998C13.5 6.57998 13.49 6.44998 13.63 6.44998C13.76 6.45998 13.66 6.57998 13.48 6.77998C13.29 6.90998 13.01 7.10998 12.78 7.24998C12.34 7.44998 11.82 7.77998 11.27 7.77998C10.73 7.77998 10.29 7.50998 9.97995 7.30998C9.81995 7.17998 9.69995 7.04998 9.59995 6.97998C9.43995 6.84998 9.45995 6.64998 9.52995 6.64998C9.63995 6.65998 9.65995 6.77998 9.72995 6.84998C9.82995 6.90998 9.94995 7.04998 10.09 7.17998Z" fill="#F9C105"/>
<path d="M12.13 5.72999C12.12 5.77999 12.04 5.78999 11.99 5.78999C11.94 5.78999 11.9 5.74999 11.85 5.72999C11.8 5.70999 11.7 5.71999 11.69 5.65999V5.63999C11.68 5.61999 11.7 5.59999 11.71 5.58999C11.7966 5.55496 11.8934 5.55496 11.98 5.58999C12.04 5.58999 12.14 5.65999 12.13 5.72999Z" fill="black"/>
<path d="M14.22 6.29998V6.43998C14.14 6.29998 13.99 6.16998 13.73 6.03998C13.19 5.83998 12.96 5.76998 12.66 5.56998C12.18 5.22998 11.77 5.16998 11.44 5.16998C11.26 5.16998 11.1 5.19998 10.96 5.22998C10.56 5.36998 10.29 5.62998 10.12 5.83998H10.11C10.08 5.86998 10.04 5.89998 9.94001 5.96998C9.83001 6.02998 9.67001 6.16998 9.45001 6.30998C9.25001 6.43998 9.18001 6.63998 9.25001 6.90998C9.32001 7.09998 9.54001 7.36998 9.95001 7.61998C10.2 7.74998 10.37 7.94998 10.57 8.08998C10.67 8.15998 10.78 8.21998 10.9 8.27998C11.04 8.33998 11.19 8.35998 11.35 8.34998C11.78 8.37998 12.09 8.21998 12.37 8.07998C12.65 7.94998 12.88 7.74998 13.16 7.61998C13.71 7.41998 14.11 7.08998 14.23 6.76998C14.29 6.61998 14.29 6.44998 14.22 6.29998ZM11.69 5.63998C11.68 5.61998 11.7 5.59998 11.71 5.58998C11.7966 5.55495 11.8934 5.55495 11.98 5.58998C12.04 5.58998 12.14 5.65998 12.13 5.72998C12.12 5.77998 12.04 5.78998 11.99 5.78998C11.94 5.78998 11.9 5.74998 11.85 5.72998C11.8 5.70998 11.7 5.71998 11.69 5.65998V5.63998ZM10.83 5.58998C10.91 5.55998 11.02 5.54998 11.09 5.58998C11.11 5.59998 11.13 5.61998 11.12 5.63998V5.65998H11.13C11.11 5.71998 11.01 5.70998 10.96 5.72998C10.91 5.74998 10.87 5.79998 10.82 5.79998C10.77 5.79998 10.69 5.77998 10.68 5.72998C10.67 5.65998 10.77 5.58998 10.83 5.58998ZM13.48 6.77998C13.29 6.90998 13.01 7.10998 12.78 7.24998C12.34 7.44998 11.82 7.77998 11.27 7.77998C10.73 7.77998 10.29 7.50998 9.98001 7.30998C9.82001 7.17998 9.70001 7.04998 9.60001 6.97998C9.44001 6.84998 9.46001 6.64998 9.53001 6.64998C9.64001 6.65998 9.66001 6.77998 9.73001 6.84998C9.83001 6.90998 9.95001 7.04998 10.09 7.17998C10.39 7.37998 10.78 7.64998 11.27 7.64998C11.76 7.64998 12.34 7.37998 12.69 7.17998C12.88 7.04998 13.14 6.84998 13.34 6.70998C13.5 6.57998 13.49 6.44998 13.63 6.44998C13.76 6.45998 13.66 6.57998 13.48 6.77998ZM21.71 20.22C21.69 20.49 21.52 20.62 21.2 20.82C20.57 21.22 19.44 21.53 18.72 22.39C18.09 23.13 17.33 23.53 16.66 23.58C15.99 23.63 15.41 23.38 15.07 22.68H15.06C14.85 22.28 14.94 21.65 15.12 20.99C15.3 20.32 15.55 19.64 15.59 19.09C15.62 18.38 15.66 17.76 15.78 17.28C15.91 16.81 16.1 16.48 16.43 16.29L16.48 16.27C16.51 16.87 16.82 17.51 17.37 17.65C17.96 17.78 18.82 17.31 19.18 16.88L19.39 16.87C19.71 16.86 19.98 16.88 20.25 17.14C20.46 17.34 20.56 17.67 20.65 18.02C20.74 18.42 20.81 18.8 21.06 19.08C21.56 19.61 21.72 19.99 21.71 20.22ZM9.61001 21.96V21.97C9.55001 22.71 9.12001 23.11 8.47001 23.26C7.81001 23.39 6.93001 23.26 6.04001 22.8C5.07001 22.26 3.90001 22.33 3.16001 22.19C2.78001 22.13 2.54001 21.99 2.42001 21.79C2.31001 21.59 2.31001 21.19 2.55001 20.56C2.67001 20.22 2.58001 19.8 2.52001 19.44C2.47001 19.04 2.44001 18.73 2.57001 18.5C2.73001 18.16 2.97001 18.1 3.26001 17.96C3.56001 17.83 3.91001 17.76 4.19001 17.5V17.49C4.45001 17.22 4.64001 16.89 4.87001 16.65C5.06001 16.45 5.25001 16.32 5.54001 16.32H5.55001C5.60001 16.32 5.65001 16.32 5.71001 16.33C6.09001 16.39 6.42001 16.67 6.74001 17.08L7.66001 18.75H7.67001C7.91001 19.28 8.43001 19.82 8.87001 20.39C9.31001 20.99 9.65001 21.52 9.61001 21.96Z" fill="#F9C105"/>
<path d="M11.13 5.65998C11.11 5.71998 11.01 5.70998 10.96 5.72998C10.91 5.74998 10.87 5.79998 10.82 5.79998C10.77 5.79998 10.69 5.77998 10.68 5.72998C10.67 5.65998 10.77 5.58998 10.83 5.58998C10.91 5.55998 11.02 5.54998 11.09 5.58998C11.11 5.59998 11.13 5.61998 11.12 5.63998V5.65998H11.13ZM13.48 6.77998C13.29 6.90998 13.01 7.10998 12.78 7.24998C12.34 7.44998 11.82 7.77998 11.27 7.77998C10.73 7.77998 10.29 7.50998 9.97995 7.30998C9.81995 7.17998 9.69995 7.04998 9.59995 6.97998C9.43995 6.84998 9.45995 6.64998 9.52995 6.64998C9.63995 6.65998 9.65995 6.77998 9.72995 6.84998C9.82995 6.90998 9.94995 7.04998 10.09 7.17998C10.39 7.37998 10.78 7.64998 11.27 7.64998C11.76 7.64998 12.34 7.37998 12.69 7.17998C12.88 7.04998 13.14 6.84998 13.34 6.70998C13.5 6.57998 13.49 6.44998 13.63 6.44998C13.76 6.45998 13.66 6.57998 13.48 6.77998Z" fill="black"/>
</svg>
