<svg width="128" height="128" viewBox="0 0 128 128" fill="none" xmlns="http://www.w3.org/2000/svg" xmlns:xlink="http://www.w3.org/1999/xlink">
<path d="M64.094 33C30.354 33 3 46.862 3 63.961C3 81.06 30.354 94.922 64.094 94.922C97.834 94.922 125.188 81.06 125.188 63.961C125.188 46.862 97.834 33 64.094 33ZM48.197 69.993C46.739 71.357 45.12 71.92 43.337 72.5C41.554 73.081 39.285 72.961 36.526 72.961H30.273L28.54 82.961H21.239L27.754 48.961H41.794C46.018 48.961 49.099 50.176 51.036 52.393C52.973 54.61 53.555 57.757 52.783 61.73C52.464 63.367 51.927 64.889 51.169 66.245C50.41 67.602 49.419 68.869 48.197 69.993ZM69.508 72.961L72.389 58.541C72.717 56.853 72.597 55.599 72.028 54.986C71.458 54.372 70.246 53.961 68.393 53.961H62.603L58.872 72.961H51.628L58.143 39.961H65.387L63.655 48.961H70.108C74.169 48.961 76.969 49.776 78.51 51.192C80.051 52.608 80.513 54.548 79.897 57.72L76.866 72.961H69.508ZM109.767 61.783C109.449 63.42 108.911 64.916 108.154 66.271C107.396 67.628 106.406 68.869 105.183 69.993C103.725 71.357 102.105 71.92 100.323 72.5C98.541 73.081 96.27 72.961 93.511 72.961H87.258L85.526 82.961H78.225L84.739 48.961H98.78C103.004 48.961 106.085 50.176 108.021 52.393C109.956 54.61 110.539 57.811 109.767 61.783ZM96.013 53.961H91.012L88.285 67.961H92.727C95.669 67.961 97.863 67.671 99.303 66.561C100.745 65.453 101.716 63.733 102.221 61.14C102.705 58.649 102.485 56.706 101.561 55.682C100.636 54.658 98.787 53.961 96.013 53.961ZM39.028 53.961H34.026L31.299 67.961H35.74C38.683 67.961 40.876 67.671 42.317 66.561C43.758 65.453 44.73 63.733 45.234 61.14C45.718 58.649 45.498 56.706 44.574 55.682C43.65 54.658 41.802 53.961 39.028 53.961Z" fill="white"/>
<path fill-rule="evenodd" clip-rule="evenodd" d="M109.767 61.783C109.449 63.42 108.911 64.916 108.154 66.271C107.396 67.628 106.406 68.869 105.183 69.993C103.725 71.357 102.105 71.92 100.323 72.5C98.541 73.081 96.27 72.961 93.511 72.961H87.258L85.526 82.961H78.225L84.739 48.961H98.78C103.004 48.961 106.085 50.176 108.021 52.393C109.956 54.61 110.539 57.811 109.767 61.783ZM91.012 53.961H96.013C98.787 53.961 100.636 54.658 101.561 55.682C102.485 56.706 102.705 58.649 102.221 61.14C101.716 63.733 100.745 65.453 99.303 66.561C97.863 67.671 95.669 67.961 92.727 67.961H88.285L91.012 53.961Z" fill="white"/>
<path d="M69.508 72.961L72.389 58.541C72.717 56.853 72.597 55.599 72.028 54.986C71.458 54.372 70.246 53.961 68.393 53.961H62.603L58.872 72.961H51.628L58.143 39.961H65.387L63.655 48.961H70.108C74.169 48.961 76.969 49.776 78.51 51.192C80.051 52.608 80.513 54.548 79.897 57.72L76.866 72.961H69.508Z" fill="white"/>
<path fill-rule="evenodd" clip-rule="evenodd" d="M48.197 69.993C46.739 71.357 45.12 71.92 43.337 72.5C41.554 73.081 39.285 72.961 36.526 72.961H30.273L28.54 82.961H21.239L27.754 48.961H41.794C46.018 48.961 49.099 50.176 51.036 52.393C52.973 54.61 53.555 57.757 52.783 61.73C52.464 63.367 51.927 64.889 51.169 66.245C50.41 67.602 49.419 68.869 48.197 69.993ZM34.026 53.961H39.028C41.802 53.961 43.65 54.658 44.574 55.682C45.498 56.706 45.718 58.649 45.234 61.14C44.73 63.733 43.758 65.453 42.317 66.561C40.876 67.671 38.683 67.961 35.74 67.961H31.299L34.026 53.961Z" fill="white"/>
<g id="Repeat group 1_inner" data-figma-trr="r6u2.5-0f">
<path d="M64 33.039C30.26 33.039 2.90601 46.901 2.90601 64C2.90601 81.099 30.26 94.961 64 94.961C97.74 94.961 125.094 81.099 125.094 64C125.094 46.901 97.74 33.039 64 33.039ZM48.103 70.032C46.645 71.396 45.026 71.959 43.243 72.539C41.46 73.12 39.191 73 36.432 73H30.179L28.446 83H21.145L27.66 49H41.7C45.924 49 49.005 50.215 50.942 52.432C52.879 54.649 53.461 57.796 52.689 61.769C52.37 63.406 51.833 64.928 51.075 66.284C50.316 67.641 49.325 68.908 48.103 70.032ZM69.414 73L72.295 58.58C72.623 56.892 72.503 55.638 71.934 55.025C71.364 54.411 70.152 54 68.299 54H62.509L58.778 73H51.534L58.049 40H65.293L63.561 49H70.014C74.075 49 76.875 49.815 78.416 51.231C79.957 52.647 80.419 54.587 79.803 57.759L76.772 73H69.414ZM109.673 61.822C109.355 63.459 108.817 64.955 108.06 66.31C107.302 67.667 106.312 68.908 105.089 70.032C103.631 71.396 102.011 71.959 100.229 72.539C98.447 73.12 96.176 73 93.417 73H87.164L85.432 83H78.131L84.645 49H98.686C102.91 49 105.991 50.215 107.927 52.432C109.862 54.649 110.445 57.85 109.673 61.822ZM95.919 54H90.918L88.191 68H92.633C95.575 68 97.769 67.71 99.209 66.6C100.651 65.492 101.622 63.772 102.127 61.179C102.611 58.688 102.391 56.745 101.467 55.721C100.542 54.697 98.693 54 95.919 54ZM38.934 54H33.932L31.205 68H35.646C38.589 68 40.782 67.71 42.223 66.6C43.664 65.492 44.636 63.772 45.14 61.179C45.624 58.688 45.404 56.745 44.48 55.721C43.556 54.697 41.708 54 38.934 54Z" fill="#6181B6"/>
<path d="M64 33.039C30.26 33.039 2.90601 46.901 2.90601 64C2.90601 81.099 30.26 94.961 64 94.961C97.74 94.961 125.094 81.099 125.094 64C125.094 46.901 97.74 33.039 64 33.039ZM48.103 70.032C46.645 71.396 45.026 71.959 43.243 72.539C41.46 73.12 39.191 73 36.432 73H30.179L28.446 83H21.145L27.66 49H41.7C45.924 49 49.005 50.215 50.942 52.432C52.879 54.649 53.461 57.796 52.689 61.769C52.37 63.406 51.833 64.928 51.075 66.284C50.316 67.641 49.325 68.908 48.103 70.032ZM69.414 73L72.295 58.58C72.623 56.892 72.503 55.638 71.934 55.025C71.364 54.411 70.152 54 68.299 54H62.509L58.778 73H51.534L58.049 40H65.293L63.561 49H70.014C74.075 49 76.875 49.815 78.416 51.231C79.957 52.647 80.419 54.587 79.803 57.759L76.772 73H69.414ZM109.673 61.822C109.355 63.459 108.817 64.955 108.06 66.31C107.302 67.667 106.312 68.908 105.089 70.032C103.631 71.396 102.011 71.959 100.229 72.539C98.447 73.12 96.176 73 93.417 73H87.164L85.432 83H78.131L84.645 49H98.686C102.91 49 105.991 50.215 107.927 52.432C109.862 54.649 110.445 57.85 109.673 61.822ZM95.919 54H90.918L88.191 68H92.633C95.575 68 97.769 67.71 99.209 66.6C100.651 65.492 101.622 63.772 102.127 61.179C102.611 58.688 102.391 56.745 101.467 55.721C100.542 54.697 98.693 54 95.919 54ZM38.934 54H33.932L31.205 68H35.646C38.589 68 40.782 67.71 42.223 66.6C43.664 65.492 44.636 63.772 45.14 61.179C45.624 58.688 45.404 56.745 44.48 55.721C43.556 54.697 41.708 54 38.934 54Z" fill="black" fill-opacity="0.2"/>
</g>
</svg>
