<svg width="48" height="48" viewBox="0 0 48 48" fill="none" xmlns="http://www.w3.org/2000/svg">
<g clip-path="url(#clip0_4_10)">
<path d="M24 48C37.2548 48 48 37.2548 48 24C48 10.7452 37.2548 0 24 0C10.7452 0 0 10.7452 0 24C0 37.2548 10.7452 48 24 48Z" fill="black"/>
<mask id="mask0_4_10" style="mask-type:luminance" maskUnits="userSpaceOnUse" x="0" y="0" width="48" height="48">
<path d="M24 48C37.2548 48 48 37.2548 48 24C48 10.7452 37.2548 0 24 0C10.7452 0 0 10.7452 0 24C0 37.2548 10.7452 48 24 48Z" fill="white"/>
</mask>
<g mask="url(#mask0_4_10)">
<path d="M30.2289 25.4973C26.1305 32.7016 23.1358 36.0471 21.2449 35.5251C19.662 35.0118 17.2406 31.8888 19.8417 27.4053C18.0449 28.4578 17.0781 29.031 16.9583 29.1337C17.677 30.5112 17.8652 33.523 16.3166 35.8332C14.7594 38.1433 11.8674 39.5465 9.06952 38.7679C8.16257 38.5112 6.79358 36.646 7.97433 34.0278C9.00962 31.7176 13.185 29.5444 14.2717 29.0053L14.5711 28.8342C12.3893 26.9262 6.91337 24.3422 6.15187 20.3807C5.93797 19.2599 6.45989 16.5904 9.74545 13.5187C12.492 10.9519 16.3422 8.95829 19.8845 7.70053C25.8481 5.57861 32.1369 6.83636 33.0952 10.6267C34.0364 14.3658 30.8021 18.8235 26.6524 20.4321C22.9476 21.861 19.893 21.6299 18.6267 21.2278C17.2064 20.7658 16.3594 19.816 16.154 19.2856C16.077 19.0802 15.9401 18.7209 16.154 18.6011C16.2909 18.5241 16.3422 18.5497 16.7102 18.9433C17.0524 19.3198 18.4214 20.3294 21.0396 20.0385C27.8845 19.2684 32.0171 13.9465 30.708 11.0802C29.7925 9.07807 24.5219 8.17112 17.8995 11.4396C9.84813 15.4524 9.41176 18.7551 9.34331 20.0128C9.15508 23.4695 13.6043 25.292 16.0171 27.8588L16.1027 27.9615C16.3936 27.8075 18.4043 26.6267 22.1262 24.4192C22.9305 23.7604 23.5551 23.8032 24.0086 24.5476C24.539 23.9658 24.7872 23.5209 24.7615 23.2128C24.7102 22.7594 25.8396 23.846 25.7198 25.7797C25.6 27.7134 24.7957 27.1144 24.8471 29.0738C23.4781 28.8342 22.8706 27.9957 23.0246 26.5412C20.4235 30.6139 20.1155 33.0952 22.0834 34.0021C22.8535 34.2759 24.2053 32.7872 26.1647 29.5358C26.3529 29.209 26.544 28.8838 26.738 28.5604C28.0043 26.4471 29.8952 23.461 30.0235 23.0845C30.2032 22.5711 30.2973 22.0406 30.3829 21.8096C30.4684 21.5786 31.2214 21.4075 32.0856 21.416C32.9497 21.416 33.0353 21.7925 33.0439 21.8695C33.0524 21.9551 32.6246 22.9818 32.5305 23.7091C32.4449 24.4278 32.5305 24.7957 32.616 25.4032C32.6674 25.8053 32.9155 26.3102 33.215 26.8834C34.1134 25.4118 35.6963 22.6053 35.8503 21.8182C35.9399 21.3825 36.0599 20.9536 36.2096 20.5348C36.2952 20.3037 37.0396 20.1326 37.9123 20.1412C38.7679 20.1412 38.8535 20.5176 38.8706 20.5947C38.8706 20.6802 38.4513 21.707 38.3572 22.4342C38.2631 23.1529 38.3572 23.5209 38.4428 24.1283C38.5027 24.6503 38.9048 25.3604 39.307 26.1562C40.4021 25.6171 41.7027 25.2578 43.2086 25.2492C47.1102 25.2235 49.3091 27.7476 49.1979 30.0663C49.1209 31.8717 47.461 32.616 47.1529 32.6674C46.9305 32.7016 46.8107 32.7102 46.7765 32.539C46.7508 32.4192 46.8364 32.3679 47.1016 32.1968C47.3583 32.0257 48.1455 31.4952 48.2909 30.5112C48.4278 29.5273 47.692 27.1914 43.9444 26.7465C42.5338 26.5453 41.0952 26.7134 39.769 27.2342C39.9658 27.7476 40.1112 28.2695 40.1283 28.8086C40.1711 29.9807 39.3583 30.8449 38.5198 31.461C38.0235 31.8289 37.5102 32.0684 37.0652 32.2139C36.723 32.3594 36.2438 32.5219 35.9187 32.4535C35.1829 32.2995 34.8064 31.6578 35.2941 30.2289C35.5679 29.4588 36.338 28.2695 37.5957 27.2513C37.3134 26.6695 36.9882 26.0706 36.8257 25.523C36.6511 24.9536 36.5139 24.3734 36.415 23.7861C36.415 23.7861 35.3882 25.9251 34.0535 27.8588L33.8225 28.1925C34.0791 28.7914 34.293 29.4417 34.3187 30.092C34.3483 30.6131 34.2434 31.1331 34.0142 31.6021C33.7849 32.0711 33.439 32.4732 33.0096 32.7701C32.5935 33.0745 32.1352 33.3166 31.6492 33.4888C31.1455 33.6968 30.6104 33.8182 30.0663 33.8481C29.6556 33.8738 29.2449 33.8481 29.0139 33.677C28.6973 33.4374 28.6631 33.1465 28.8257 32.7444C28.9711 32.4021 29.9893 31.2385 30.8449 30.2118C31.093 29.9294 31.3155 29.6385 31.5123 29.3561L31.923 28.8171C31.6064 28.1326 31.2128 27.4396 31.0246 26.7979C30.6995 25.7112 30.6053 25.061 30.6053 25.061L30.2289 25.4973ZM14.3144 34.9947C14.9782 34.3081 15.4469 33.4571 15.6725 32.5292C15.8981 31.6014 15.8723 30.6301 15.5979 29.7155L15.4096 29.8353L15.3241 29.8866L14.554 30.3487C13.5136 30.9844 12.534 31.7148 11.6278 32.5305C10.1048 33.9594 9.78824 35.9529 10.5925 36.4235C11.3369 36.8513 13.0738 36.338 14.3144 34.9947ZM30.8278 32.4107C31.3497 32.077 32.5134 31.2727 32.5134 30.0663V29.9636C32.2567 30.3144 32 30.631 31.7861 30.9048C31.3607 31.3994 30.9242 31.8844 30.477 32.3594C30.477 32.3594 30.3487 32.4877 30.4 32.5219C30.4856 32.5647 30.6567 32.5048 30.8278 32.4107ZM36.5947 31.093C37.2449 30.862 38.3316 30.2888 38.3401 28.7743C38.3381 28.5264 38.2948 28.2806 38.2118 28.0471C37.6774 28.5058 37.241 29.0674 36.9283 29.6984C36.4834 30.6824 36.4578 30.9989 36.5861 31.093H36.5947Z" fill="white"/>
</g>
</g>
<defs>
<clipPath id="clip0_4_10">
<rect width="48" height="48" fill="white"/>
</clipPath>
</defs>
</svg>
