<svg width="59" height="59" viewBox="0 0 59 59" fill="none" xmlns="http://www.w3.org/2000/svg">
<path d="M49.4794 40.2803C43.447 48.3267 30.5662 45.6111 22.3055 46.0001C22.3055 46.0001 20.842 46.0833 19.3712 46.3255C19.3712 46.3255 19.9283 46.0882 20.6393 45.8411C26.4395 43.8325 29.1809 43.4289 32.7065 41.616C39.3277 38.2204 45.9196 30.8199 47.2609 23.1331C44.7395 30.5263 37.0726 36.8895 30.0922 39.473C25.3156 41.2393 16.6739 42.9567 16.6714 42.9567C16.554 42.8965 16.4375 42.8345 16.322 42.7708C10.446 39.9084 10.275 27.1624 20.9495 23.0548C25.6308 21.2542 30.1044 22.2426 35.1644 21.0365C40.5591 19.7521 46.8089 15.7032 49.3475 10.4091C52.1938 18.8689 55.6144 32.0994 49.4794 40.2803ZM49.582 7.7914C48.8996 9.42991 48.0261 10.9819 46.9799 12.4152C44.7057 10.0682 41.9839 8.20245 38.9759 6.92868C35.9679 5.6549 32.7351 4.99904 29.4692 5C15.9751 5 5 15.9895 5 29.4988C4.99843 32.8686 5.69331 36.2023 7.04095 39.2901C8.38859 42.3779 10.3598 45.1531 12.8306 47.4411L13.3681 47.9157C12.9764 47.5227 12.7565 46.99 12.7568 46.4348C12.7571 45.8795 12.9777 45.3471 13.37 44.9547C13.7622 44.5622 14.2941 44.3418 14.8487 44.3419C15.4032 44.342 15.935 44.5627 16.3271 44.9553C16.7192 45.3479 16.9395 45.8804 16.9396 46.4357C16.9398 46.9909 16.7196 47.5235 16.3277 47.9163C15.9357 48.3091 15.404 48.5299 14.8495 48.5303C14.295 48.5306 13.763 48.3104 13.3706 47.9181L13.7346 48.241C18.1335 51.9649 23.7089 54.0055 29.4692 54C42.3646 54 52.9561 43.95 53.8626 31.2676C54.532 25.056 52.6996 17.1687 49.582 7.7914Z" fill="#6DB33F"/>
<path fill-rule="evenodd" clip-rule="evenodd" d="M28.2805 46.0457C35.8822 46.2844 44.7688 46.5636 49.4794 40.2803C55.6144 32.0993 52.1938 18.8689 49.3475 10.4091C46.8089 15.7032 40.5591 19.7521 35.1644 21.0365C32.9486 21.5647 30.8452 21.672 28.7876 21.777C26.1465 21.9118 23.5808 22.0427 20.9495 23.0548C10.275 27.1624 10.446 39.9084 16.322 42.7708C16.4375 42.8345 16.554 42.8965 16.6714 42.9567C16.6739 42.9567 25.3156 41.2393 30.0922 39.473C37.0726 36.8895 44.7395 30.5263 47.2609 23.1331C45.9196 30.8199 39.3277 38.2204 32.7065 41.616C30.4714 42.7653 28.5515 43.3482 25.9675 44.1327C24.4756 44.5857 22.7624 45.1059 20.6393 45.8411C19.9283 46.0882 19.3712 46.3255 19.3712 46.3255C20.842 46.0833 22.3056 46.0001 22.3056 46.0001C24.1156 45.9149 26.1474 45.9787 28.2805 46.0457Z" fill="white"/>
<path fill-rule="evenodd" clip-rule="evenodd" d="M13.3681 47.9157C12.9764 47.5227 12.7565 46.99 12.7568 46.4348C12.7571 45.8795 12.9777 45.3471 13.37 44.9547C13.7622 44.5622 14.2941 44.3418 14.8487 44.3419C15.4032 44.342 15.935 44.5627 16.3271 44.9553C16.7192 45.3479 16.9395 45.8804 16.9396 46.4357C16.9398 46.9909 16.7196 47.5235 16.3277 47.9163C15.9357 48.3091 15.404 48.5299 14.8495 48.5303C14.3781 48.5305 13.9211 48.3697 13.5537 48.0804L13.3681 47.9157Z" fill="white"/>
<path fill-rule="evenodd" clip-rule="evenodd" d="M13.5537 48.0804C13.4889 48.0294 13.4269 47.9744 13.3681 47.9157L13.5537 48.0804Z" fill="white"/>
</svg>
